<?xml version="1.0" standalone="no"?>
<!DOCTYPE svg PUBLIC "-//W3C//DTD SVG 1.1//EN"
  "http://www.w3.org/Graphics/SVG/1.1/DTD/svg11.dtd">
<svg width="15.183061242103577mm" height="18.713878512382507mm" viewBox="-12.29153060913086 0.8680611848831177 15.183061242103577 18.713878512382507" xmlns="http://www.w3.org/2000/svg" version="1.1">
	<title>svgOutput</title>
	<desc>made with tinkercad</desc>
<path d="M -11.279163360595703 2.9265713691711426 L -11.278636932373047 2.923168420791626 L -11.264469146728516 2.8315510749816895 L -11.263999938964844 2.8294694423675537 L -11.260880470275879 2.815999984741211 L -11.242448806762695 2.736408233642578 L -11.241877555847168 2.7343673706054688 L -11.216407775878906 2.644244909286499 L -11.215693473815918 2.6422858238220215 L -11.185522079467773 2.559999942779541 L -11.183367729187012 2.5541224479675293 L -11.182530403137207 2.5522449016571045 L -11.145306587219238 2.4679999351501465 L -11.144347190856934 2.4662041664123535 L -11.102224349975586 2.3858776092529297 L -11.101183891296387 2.3841633796691895 L -11.096617698669434 2.3768386840820312 L -11.054162979125977 2.308734655380249 L -11.053000450134277 2.3071632385253906 L -11.050671577453613 2.303999900817871 L -11.008000373840332 2.2460312843322754 L -11.001081466674805 2.2366325855255127 L -10.999815940856934 2.2351632118225098 L -10.943979263305664 2.1695306301116943 L -10.942652702331543 2.1681835651397705 L -10.938955307006836 2.1644856929779053 L -10.882898330688477 2.108428478240967 L -10.8814697265625 2.107224464416504 L -10.817795753479004 2.053346872329712 L -10.816306114196777 2.052285671234131 L -10.816193580627441 2.052206039428711 L -10.810235023498535 2.0480000972747803 L -10.751999855041504 2.0068931579589844 L -10.749693870544434 2.005265235900879 L -10.748143196105957 2.0043673515319824 L -10.679571151733398 1.9632245302200317 L -10.677979469299316 1.9624693393707275 L -10.666696548461914 1.9572144746780396 L -10.60646915435791 1.9291632175445557 L -10.604836463928223 1.9285918474197388 L -10.531367301940918 1.9031224250793457 L -10.529693603515625 1.9026938676834106 L -10.496000289916992 1.8938270807266235 L -10.455245018005371 1.8831020593643188 L -10.453551292419434 1.8828366994857788 L -10.378122329711914 1.8720612525939941 L -10.376408576965332 1.8719795942306519 L -10.300000190734863 1.8680611848831177 L -10.294122695922852 1.8680611848831177 L -10.239999771118164 1.8680611848831177 L -8.192000389099121 1.8680611848831177 L -6.144000053405762 1.8680611848831177 L -4.0960001945495605 1.8680611848831177 L -2.0480000972747803 1.8680611848831177 L 0 1.8680611848831177 L 0.8999999761581421 1.8680611848831177 L 0.9017142653465271 1.86814284324646 L 0.9781224727630615 1.8720612525939941 L 0.9798163175582886 1.8723264932632446 L 1.0240000486373901 1.878638505935669 L 1.0552449226379395 1.8831020593643188 L 1.0569183826446533 1.883530616760254 L 1.1313673257827759 1.9031224250793457 L 1.1330000162124634 1.9036939144134521 L 1.2064694166183472 1.9291632175445557 L 1.2080612182617188 1.9299184083938599 L 1.2795714139938354 1.9632245302200317 L 1.2811224460601807 1.9641224145889282 L 1.284729242324829 1.966286540031433 L 1.3496938943862915 2.005265235900879 L 1.3511836528778076 2.00632643699646 L 1.4102210998535156 2.0480000972747803 L 1.4177958965301514 2.053346872329712 L 1.419224500656128 2.054551124572754 L 1.4828979969024658 2.108428478240967 L 1.4842244386672974 2.1097755432128906 L 1.5360000133514404 2.161550998687744 L 1.5439796447753906 2.1695306301116943 L 1.5452449321746826 2.1710000038146973 L 1.6010816097259521 2.2366325855255127 L 1.6022448539733887 2.238204002380371 L 1.650678038597107 2.303999900817871 L 1.6541632413864136 2.308734655380249 L 1.6552040576934814 2.3104488849639893 L 1.7022244930267334 2.3858776092529297 L 1.703183650970459 2.3876733779907227 L 1.7101117372512817 2.4008851051330566 L 1.745306134223938 2.4679999351501465 L 1.746142864227295 2.4698774814605713 L 1.783367395401001 2.5541224479675293 L 1.7840815782546997 2.556081533432007 L 1.7855184078216553 2.559999942779541 L 1.7920000553131104 2.5776772499084473 L 1.8164081573486328 2.644244909286499 L 1.8169796466827393 2.6462857723236084 L 1.8424489498138428 2.736408233642578 L 1.8429183959960938 2.738489866256714 L 1.8608680963516235 2.815999984741211 L 1.8644694089889526 2.8315510749816895 L 1.8647959232330322 2.8336734771728516 L 1.879489779472351 2.9286937713623047 L 1.8796122074127197 2.9299795627593994 L 1.879693865776062 2.9308366775512695 L 1.8885102272033691 3.026836633682251 L 1.8885918855667114 3.0290000438690186 L 1.8899081945419312 3.072000026702881 L 1.8915306329727173 3.125 L 1.8915306329727173 3.5840001106262207 L 1.8915306329727173 4.0960001945495605 L 1.8915306329727173 6.144000053405762 L 1.8915306329727173 8.192000389099121 L 1.8915306329727173 10.239999771118164 L 1.8915306329727173 12.288000106811523 L 1.8915306329727173 14.336000442504883 L 1.8915306329727173 16.384000778198242 L 1.8915306329727173 16.895999908447266 L 1.8915306329727173 17.325000762939453 L 1.891448974609375 17.327163696289062 L 1.8889744281768799 17.408000946044922 L 1.8885102272033691 17.42316246032715 L 1.8883061408996582 17.42530632019043 L 1.879489779472351 17.52130699157715 L 1.8791632652282715 17.523427963256836 L 1.8786370754241943 17.526830673217773 L 1.8644694089889526 17.61844825744629 L 1.8639999628067017 17.62053108215332 L 1.8539334535598755 17.663999557495117 L 1.8424489498138428 17.713592529296875 L 1.8418775796890259 17.715633392333984 L 1.8164081573486328 17.805755615234375 L 1.8156938552856445 17.807714462280273 L 1.7920000553131104 17.872333526611328 L 1.783367395401001 17.895877838134766 L 1.782530665397644 17.897754669189453 L 1.7727015018463135 17.920000076293945 L 1.745306134223938 17.98200035095215 L 1.7443469762802124 17.983795166015625 L 1.7022244930267334 18.064123153686523 L 1.7011836767196655 18.06583595275879 L 1.696617603302002 18.073162078857422 L 1.6541632413864136 18.141265869140625 L 1.652999997138977 18.142837524414062 L 1.6289225816726685 18.176000595092773 L 1.6010816097259521 18.21434783935547 L 1.5998163223266602 18.215816497802734 L 1.5439796447753906 18.28046989440918 L 1.5426530838012695 18.281816482543945 L 1.5360000133514404 18.288469314575195 L 1.4828979969024658 18.341571807861328 L 1.4814693927764893 18.342775344848633 L 1.4177958965301514 18.396652221679688 L 1.4163061380386353 18.397714614868164 L 1.4161933660507202 18.397794723510742 L 1.367734670639038 18.43199920654297 L 1.3496938943862915 18.444734573364258 L 1.3481428623199463 18.445632934570312 L 1.2795714139938354 18.48677635192871 L 1.2779796123504639 18.487529754638672 L 1.2666970491409302 18.492786407470703 L 1.2064694166183472 18.520835876464844 L 1.2048367261886597 18.521408081054688 L 1.1313673257827759 18.546876907348633 L 1.129693865776062 18.547306060791016 L 1.0552449226379395 18.566898345947266 L 1.0535510778427124 18.567163467407227 L 1.0503971576690674 18.56761360168457 L 1.0240000486373901 18.57138442993164 L 0.9781224727630615 18.577938079833984 L 0.9764081835746765 18.578020095825195 L 0.8999999761581421 18.581939697265625 L 0.8941224217414856 18.581939697265625 L 0 18.581939697265625 L -2.0480000972747803 18.581939697265625 L -4.0960001945495605 18.581939697265625 L -6.144000053405762 18.581939697265625 L -8.192000389099121 18.581939697265625 L -10.239999771118164 18.581939697265625 L -10.300000190734863 18.581939697265625 L -10.301713943481445 18.581857681274414 L -10.378122329711914 18.577938079833984 L -10.379816055297852 18.577672958374023 L -10.455245018005371 18.566898345947266 L -10.456918716430664 18.566469192504883 L -10.465105056762695 18.564315795898438 L -10.496000289916992 18.556184768676758 L -10.531367301940918 18.546876907348633 L -10.532999992370605 18.546306610107422 L -10.60646915435791 18.520835876464844 L -10.608060836791992 18.520082473754883 L -10.679571151733398 18.48677635192871 L -10.681122779846191 18.485877990722656 L -10.68472957611084 18.483713150024414 L -10.749693870544434 18.444734573364258 L -10.75118350982666 18.443674087524414 L -10.751999855041504 18.443098068237305 L -10.767721176147461 18.43199920654297 L -10.817795753479004 18.396652221679688 L -10.81922435760498 18.395448684692383 L -10.882898330688477 18.341571807861328 L -10.884224891662598 18.340225219726562 L -10.943979263305664 18.28046989440918 L -10.945244789123535 18.27899932861328 L -11.001081466674805 18.21434783935547 L -11.002081871032715 18.212995529174805 L -11.00224494934082 18.21277618408203 L -11.028944969177246 18.176000595092773 L -11.054162979125977 18.141265869140625 L -11.055204391479492 18.139551162719727 L -11.102224349975586 18.064123153686523 L -11.10318374633789 18.062326431274414 L -11.110111236572266 18.049114227294922 L -11.145306587219238 17.98200035095215 L -11.146142959594727 17.980121612548828 L -11.172708511352539 17.920000076293945 L -11.183367729187012 17.895877838134766 L -11.18408203125 17.893918991088867 L -11.216407775878906 17.805755615234375 L -11.21697998046875 17.803714752197266 L -11.242448806762695 17.713592529296875 L -11.242918014526367 17.711509704589844 L -11.253920555114746 17.663999557495117 L -11.263999938964844 17.62047576904297 L -11.264469146728516 17.61844825744629 L -11.264796257019043 17.6163272857666 L -11.279489517211914 17.52130699157715 L -11.27961254119873 17.52001953125 L -11.279693603515625 17.519163131713867 L -11.2885103225708 17.42316246032715 L -11.288591384887695 17.42099952697754 L -11.288990020751953 17.408000946044922 L -11.29153060913086 17.325000762939453 L -11.29153060913086 16.384000778198242 L -11.29153060913086 15.359999656677246 L -11.29153060913086 14.336000442504883 L -11.29153060913086 13.312000274658203 L -11.29153060913086 12.288000106811523 L -11.29153060913086 11.263999938964844 L -11.29153060913086 10.239999771118164 L -11.29153060913086 9.215999603271484 L -11.29153060913086 8.192000389099121 L -11.29153060913086 7.168000221252441 L -11.29153060913086 6.144000053405762 L -11.29153060913086 5.119999885559082 L -11.29153060913086 4.0960001945495605 L -11.29153060913086 3.125 L -11.291448593139648 3.1228368282318115 L -11.28989315032959 3.072000026702881 L -11.2885103225708 3.026836633682251 L -11.28830623626709 3.0246939659118652 L -11.279489517211914 2.9286937713623047 L -11.279163360595703 2.9265713691711426 z" fill="none" stroke="rgb(0,0,255)" stroke-width="0.01mm" />
</svg>